<svg width="717" height="945" viewBox="0 0 717 945" fill="none" xmlns="http://www.w3.org/2000/svg">
<g filter="url(#filter0_f_922_19496)">
<path d="M152.891 931.149C205.396 948.745 324.92 911.683 450.509 863.168L616.327 852.704C760.572 843.6 707.205 613.278 611.754 424.969C516.304 236.66 520.648 241.306 380.748 255.055C240.848 268.804 305.164 170.038 237.364 57.4719C169.563 -55.0946 293.221 181.606 193.413 319.509C93.6042 457.413 67.1872 372.01 168.406 566.104C269.624 760.198 221.932 754.993 171.085 764.352C120.238 773.711 116.623 714.901 69.8162 724.005C23.0089 733.108 46.1558 757.477 76.7274 836.724C107.299 915.972 100.387 913.553 152.891 931.149Z" fill="#50DFFF"/>
</g>
<defs>
<filter id="filter0_f_922_19496" x="-36.753" y="-51.9481" width="821.925" height="1067.51" filterUnits="userSpaceOnUse" color-interpolation-filters="sRGB">
<feFlood flood-opacity="0" result="BackgroundImageFix"/>
<feBlend mode="normal" in="SourceGraphic" in2="BackgroundImageFix" result="shape"/>
<feGaussianBlur stdDeviation="39.9823" result="effect1_foregroundBlur_922_19496"/>
</filter>
</defs>
</svg>
