<svg width="1661" height="2273" viewBox="0 0 1661 2273" fill="none" xmlns="http://www.w3.org/2000/svg">
<mask id="mask0_922_19472" style="mask-type:alpha" maskUnits="userSpaceOnUse" x="8" y="0" width="1644" height="2273">
<path d="M8.75436 171.211C663.751 92.147 1378.69 6.12665 1411.05 1.05924e-05L1651.47 2101.64L249.166 2272.85L8.75436 171.211Z" fill="url(#paint0_linear_922_19472)"/>
</mask>
<g mask="url(#mask0_922_19472)">
<path d="M1346.13 932.585C1363.6 1079.88 1228.15 1222.04 1093.54 1238.48C958.939 1254.91 775.221 1216.86 756.475 1058.83C747.186 980.515 645.927 896.416 701.921 795.191C758.922 692.148 945.061 691.27 1012.96 682.979C1147.57 666.545 1328.66 785.294 1346.13 932.585Z" fill="#6202FE"/>
<g filter="url(#filter0_f_922_19472)">
<path d="M1334.39 932.231C1353.13 1090.2 1249.97 1217.48 1145.47 1230.24C1040.97 1243 896.757 1200.14 878.019 1042.18C868.734 963.898 784.884 877.713 825.892 778.356C867.638 677.215 1012.72 681.34 1065.44 674.904C1169.94 662.145 1315.65 774.265 1334.39 932.231Z" fill="#6202FE"/>
</g>
<g filter="url(#filter1_f_922_19472)">
<path d="M1334.96 937.012C1355.96 1114.06 1227.06 1258.34 1098.02 1274.1C968.979 1289.85 791.714 1243.73 770.713 1066.68C760.306 978.943 646.034 884.824 697.928 772.741C750.754 658.643 940.525 659.951 1005.62 652.004C1134.66 636.249 1313.96 759.963 1334.96 937.012Z" fill="#6202FE"/>
</g>
<g filter="url(#filter2_f_922_19472)">
<path d="M1295.24 962.66C1286.18 1185.52 1122.65 1389.18 955.696 1409.56C788.747 1429.94 595.105 1341.03 569.918 1128.7C557.437 1023.48 359.435 910.426 427.743 775.263C497.279 637.671 803.693 613.05 887.911 602.768C1054.86 582.385 1305.74 704.485 1295.24 962.66Z" fill="#6202FE"/>
</g>
<g filter="url(#filter3_f_922_19472)">
<path d="M1259.72 1025.09C1286.84 1253.71 1097.03 1493.13 933.799 1513.06C770.571 1532.99 579.942 1435.07 552.823 1206.44C539.384 1093.15 460.772 963.188 526.09 818.657C592.58 671.53 923.107 563.39 1005.45 553.337C1168.68 533.408 1232.6 796.456 1259.72 1025.09Z" fill="#6202FE"/>
</g>
<g filter="url(#filter4_f_922_19472)">
<path d="M1207.06 1138.35C1235.09 1374.62 1039.21 1604.88 872.26 1625.26C705.31 1645.65 510.185 1544.23 482.159 1307.96C468.271 1190.88 673.394 988.489 740.031 839.235C807.866 687.3 1039.38 691.698 1123.6 681.416C1290.55 661.032 1179.03 902.085 1207.06 1138.35Z" fill="#6202FE"/>
</g>
<g filter="url(#filter5_f_922_19472)">
<path d="M1212.53 957.403C1237.05 1164.14 1038.16 1368.97 871.209 1389.36C704.26 1409.74 510.965 1323.76 486.442 1117.02C474.29 1014.57 415.126 895.608 483.826 763.742C553.76 629.507 784.801 629.88 869.019 619.598C1035.97 599.215 1188.01 750.67 1212.53 957.403Z" fill="#6202FE"/>
</g>
</g>
<defs>
<filter id="filter0_f_922_19472" x="808.147" y="667.395" width="534.984" height="571.477" filterUnits="userSpaceOnUse" color-interpolation-filters="sRGB">
<feFlood flood-opacity="0" result="BackgroundImageFix"/>
<feBlend mode="normal" in="SourceGraphic" in2="BackgroundImageFix" result="shape"/>
<feGaussianBlur stdDeviation="3.25995" result="effect1_foregroundBlur_922_19472"/>
</filter>
<filter id="filter1_f_922_19472" x="661.658" y="627.833" width="698.382" height="671.964" filterUnits="userSpaceOnUse" color-interpolation-filters="sRGB">
<feFlood flood-opacity="0" result="BackgroundImageFix"/>
<feBlend mode="normal" in="SourceGraphic" in2="BackgroundImageFix" result="shape"/>
<feGaussianBlur stdDeviation="11.4098" result="effect1_foregroundBlur_922_19472"/>
</filter>
<filter id="filter2_f_922_19472" x="380.848" y="567.979" width="947.313" height="877.021" filterUnits="userSpaceOnUse" color-interpolation-filters="sRGB">
<feFlood flood-opacity="0" result="BackgroundImageFix"/>
<feBlend mode="normal" in="SourceGraphic" in2="BackgroundImageFix" result="shape"/>
<feGaussianBlur stdDeviation="16.2998" result="effect1_foregroundBlur_922_19472"/>
</filter>
<filter id="filter3_f_922_19472" x="412.455" y="464.251" width="937.891" height="1139.35" filterUnits="userSpaceOnUse" color-interpolation-filters="sRGB">
<feFlood flood-opacity="0" result="BackgroundImageFix"/>
<feBlend mode="normal" in="SourceGraphic" in2="BackgroundImageFix" result="shape"/>
<feGaussianBlur stdDeviation="44.0093" result="effect1_foregroundBlur_922_19472"/>
</filter>
<filter id="filter4_f_922_19472" x="263.07" y="461.791" width="1173.26" height="1384.44" filterUnits="userSpaceOnUse" color-interpolation-filters="sRGB">
<feFlood flood-opacity="0" result="BackgroundImageFix"/>
<feBlend mode="normal" in="SourceGraphic" in2="BackgroundImageFix" result="shape"/>
<feGaussianBlur stdDeviation="109.208" result="effect1_foregroundBlur_922_19472"/>
</filter>
<filter id="filter5_f_922_19472" x="350.121" y="516.701" width="965.53" height="976.631" filterUnits="userSpaceOnUse" color-interpolation-filters="sRGB">
<feFlood flood-opacity="0" result="BackgroundImageFix"/>
<feBlend mode="normal" in="SourceGraphic" in2="BackgroundImageFix" result="shape"/>
<feGaussianBlur stdDeviation="50.5292" result="effect1_foregroundBlur_922_19472"/>
</filter>
<linearGradient id="paint0_linear_922_19472" x1="1118.78" y1="893.168" x2="248.058" y2="906.206" gradientUnits="userSpaceOnUse">
<stop stop-color="#C4C4C4"/>
<stop offset="1" stop-color="#C4C4C4" stop-opacity="0"/>
</linearGradient>
</defs>
</svg>
